<?xml version="1.0" encoding="UTF-8" standalone="no"?>
<!-- Created with Inkscape (http://www.inkscape.org/) -->

<svg
   version="1.1"
   id="svg1"
   width="225"
   height="225"
   viewBox="0 0 225 225"
   xmlns="http://www.w3.org/2000/svg"
   xmlns:svg="http://www.w3.org/2000/svg">
  <defs
     id="defs1" />
  <g
     id="g1"
     style="display:inline">
    <rect
       style="display:inline;opacity:1;mix-blend-mode:normal;fill:#073b3c;fill-opacity:1;stroke:none;stroke-width:0;stroke-linejoin:round;stroke-dasharray:none"
       id="rect2"
       width="165.03882"
       height="110.31696"
       x="28.824867"
       y="52.202084"
       rx="14.488927"
       ry="12.070064" />
    <path
       style="display:inline;fill:#33e3e7;fill-opacity:1;stroke-width:1.03334"
       d="m 217.2286,105.8114 c 0,-129.523292 -206.054033,-120.182091 -206.054033,2.26402 C 11.742011,226.03896 217.2286,224.81163 217.2286,105.8114 Z m -180.358562,51.39904 -2.349507,-0.72252 5.349507,-4.75346 c 2.942228,-2.61441 10.749506,-9.81693 17.349506,-16.00562 6.6,-6.1887 13.550945,-12.6941 15.446544,-14.45647 9.023104,-8.38893 12.052308,-11.58026 12.039052,-12.68343 C 84.69313,107.58965 78.246089,99.012528 67.350655,85.500594 61.333082,78.037928 47.719544,60.006745 47.719544,59.499113 c 0,-0.319853 2.279443,-0.726788 5.065429,-0.904299 l 5.06543,-0.322748 -2.104385,-2.402518 -2.104384,-2.402517 25.288955,0.009 25.288951,0.009 6.97839,9.122399 c 3.83812,5.01732 7.76409,9.881639 8.72438,10.8096 l 1.74598,1.6872 2.27563,-1.647228 c 1.25159,-0.905977 6.77471,-5.774341 12.2736,-10.818588 l 9.99797,-9.171322 h 24.64545 24.64544 l -7.14342,7.256724 c -3.92888,3.991138 -8.94342,8.86748 -11.14342,10.836255 -2.2,1.968775 -6.51592,6.030927 -9.59093,9.027003 -3.07501,2.996077 -6.90001,6.614925 -8.5,8.041884 -9.74231,8.688747 -14.40601,13.352212 -14.38403,14.383292 0.0327,1.53218 4.4023,7.45794 15.47496,20.98595 12.73118,15.55431 21.57342,26.91484 21.2322,27.2792 -0.16053,0.1714 -2.18527,0.43094 -4.49943,0.57674 l -4.20756,0.26509 1.44183,2.34969 1.44184,2.34968 -2.04651,0.57145 c -1.12557,0.31429 -12.26561,0.62041 -24.75563,0.68027 l -22.70913,0.10882 -8.86899,-10.71242 c -4.87795,-5.89182 -9.16141,-10.71242 -9.51881,-10.71242 -0.69987,0 -7.0519,5.58652 -13.509806,11.88166 -2.2,2.14455 -5.376403,5.11889 -7.058673,6.60963 l -3.058673,2.71046 -22.441327,-0.0115 c -12.34273,-0.006 -23.498605,-0.33669 -24.790833,-0.73406 z"
       id="path1" />
    <path
       style="fill:none;fill-opacity:1;stroke:#d7fcfd;stroke-width:10;stroke-linecap:butt;stroke-linejoin:miter;stroke-dasharray:none;stroke-opacity:1"
       d="m 38.925421,61.275306 9.750971,-1.455369 -3.638422,-4.65718 50.210219,-0.291073 17.173351,21.684993 24.59573,-21.539457 49.76458,0.142597 -51.35215,49.293943 36.84182,48.36775 -8.54154,0.92619 2.98439,4.73387 -50.01431,1.33783 -18.112181,-20.99366 -23.669321,20.89075 -46.824099,-0.61746 -2.675662,-1.13201 50.323042,-47.02992 z"
       id="path2" />
  </g>
</svg>
